# xmcd CD database file
#
# Track frame offsets:
#	187
#	16815
#	29785
#	44630
#	58810
#	73682
#	88732
#	102157
#	116635
#	130360
#	150080
#	163967
#	180160
#	191640
#	209330
#	222142
#	233647
#	246387
#	258160
#	273002
#
# Disc length: 3806 seconds
#
# Revision: 0
# Processed by: cddbd v1.4PL0 Copyright (c) Steve Scherf et al.
# Submitted via: CD2WAV32(EN) R3.19
#
DISCID=1b0edc14
DTITLE=Ray Charles - His Greatest Hits Vol I.
DYEAR=1900
DGENRE=
TTITLE0=Georgia On My Mind
TTITLE1=Unchain My Heart
TTITLE2=Born To Lose
TTITLE3=One Mint Julip
TTITLE4=You Don't Know Me
TTITLE5=Smack Dab In The Middle
TTITLE6=Crying Time
TTITLE7=Hide Nor Hair
TTITLE8=Let's Go Get Stoned
TTITLE9=That Lucky Old Sun
TTITLE10=Don't Change On Me
TTITLE11=Your Cheating Heart
TTITLE12=I Don't Need No Doctor
TTITLE13=Careless Love
TTITLE14=My Heart Cries For You
TTITLE15=I Chose To Sing The Blues
TTITLE16=If You Were Mine
TTITLE17=Baby Don't You Cry
TTITLE18=Here We Go Again
TTITLE19=Yesterday
EXTD=
EXTT0=
EXTT1=
EXTT2=
EXTT3=
EXTT4=
EXTT5=
EXTT6=
EXTT7=
EXTT8=
EXTT9=
EXTT10=
EXTT11=
EXTT12=
EXTT13=
EXTT14=
EXTT15=
EXTT16=
EXTT17=
EXTT18=
EXTT19=
PLAYORDER=
